<?xml version="1.0" encoding="UTF-8"?>
<svg version="1.1" xmlns="http://www.w3.org/2000/svg" width="500" height="488">
<path d="M0 0 C1.83190134 -0.00668677 1.83190134 -0.00668677 3.70081079 -0.01350862 C5.04772084 -0.01341933 6.39463089 -0.01322951 7.74154091 -0.01294994 C9.17899729 -0.01625161 10.61645275 -0.01997781 12.05390704 -0.02409142 C16.00001337 -0.03408536 19.9461045 -0.03782402 23.89222169 -0.04048073 C28.15013728 -0.0443916 32.40804093 -0.05396946 36.66594887 -0.0626936 C46.94763232 -0.08243708 57.22931673 -0.09252204 67.5110144 -0.10142139 C72.35743552 -0.10580821 77.20385555 -0.11117404 82.0502758 -0.11641026 C98.16922148 -0.13342127 114.28816648 -0.14791393 130.40711975 -0.155159 C134.58814304 -0.15706877 138.76916632 -0.15898912 142.95018959 -0.16094494 C143.98931478 -0.16142868 145.02843998 -0.16191242 146.09905382 -0.16241082 C162.92026579 -0.1707055 179.74140653 -0.1960335 196.56258743 -0.22852562 C213.84752574 -0.26164024 231.1324279 -0.27961178 248.4173981 -0.28280324 C258.11613167 -0.28496438 267.81476139 -0.2936548 277.51346397 -0.31926441 C285.77594733 -0.34103171 294.0383016 -0.34899232 302.30081038 -0.33929763 C306.51143925 -0.33477019 310.7218021 -0.33654769 314.93239403 -0.35605907 C318.79805919 -0.37381621 322.66326678 -0.37259289 326.52893765 -0.35716178 C328.56678198 -0.35370021 330.60463182 -0.36971775 332.64240777 -0.38676625 C352.89538515 -0.24743943 370.87161263 6.96347173 386.84032631 19.13422108 C387.56735756 19.67562733 388.29438881 20.21703358 389.04345131 20.77484608 C405.57518367 34.08087457 415.27223137 54.5866335 418.84032631 75.13422108 C418.93091744 77.08236831 418.97111481 79.03318912 418.97454739 80.98343849 C418.97900523 82.16091426 418.98346307 83.33839002 418.988056 84.55154687 C418.98777946 86.48604047 418.98777946 86.48604047 418.98749733 88.45961475 C418.99079819 89.84671051 418.99452423 91.23380532 418.99863881 92.6208989 C419.00864213 96.43244575 419.01237293 100.24397685 419.01502812 104.05553496 C419.01893627 108.1669094 419.02851443 112.27827144 419.03724098 116.38963795 C419.05699364 126.32023415 419.06707126 136.25083135 419.07596877 146.18144229 C419.08035468 150.86199861 419.08572081 155.54255381 419.09095764 160.22310925 C419.10797069 175.79042577 419.12246289 191.3577416 419.12970638 206.92506599 C419.13161618 210.96394127 419.13353652 215.00281653 419.13549232 219.04169178 C419.13597607 220.0454951 419.13645981 221.04929842 419.1369582 222.08352002 C419.14525106 238.32927594 419.17057505 254.57495806 419.203073 270.82068179 C419.2361919 287.513462 419.25415961 304.20620477 419.25735062 320.89901799 C419.25951153 330.2657734 419.26819833 339.63242125 419.2938118 348.99914455 C419.31558508 356.9798503 419.32353686 364.96042238 419.31384502 372.94115446 C419.30931908 377.00798603 419.31108602 381.0745422 419.33060646 385.14133549 C419.47280774 416.52930712 419.47280774 416.52930712 414.84032631 429.13422108 C414.61633836 429.75049795 414.39235042 430.36677482 414.16157496 431.00172675 C410.70454883 440.41879625 405.87269376 448.21941272 399.84032631 456.13422108 C399.29892006 456.86125233 398.75751381 457.58828358 398.19970131 458.33734608 C385.91206415 473.60380437 367.60075648 482.79357253 348.84032631 487.13422108 C348.07819842 487.31071302 347.31607052 487.48720497 346.53084785 487.66904515 C343.57175357 488.18065578 340.80692562 488.26333931 337.80370045 488.26844215 C336.58442393 488.2729 335.36514742 488.27735784 334.10892314 488.28195077 C332.75907082 488.28186148 331.40921851 488.28167165 330.05936623 488.2813921 C328.6227729 488.28469278 327.18618049 488.28841878 325.74958926 488.29253358 C321.80122359 488.3025389 317.85287311 488.30626802 313.90449655 488.30892289 C309.6458817 488.31283043 305.38727883 488.32240862 301.12867165 488.33113575 C290.84212109 488.35088998 280.55556957 488.36096617 270.26900479 488.36986354 C265.42108723 488.37424914 260.57317076 488.37961534 255.72525406 488.38485241 C239.60205976 488.40186552 223.47886614 488.41635786 207.35566425 488.42360115 C203.17241032 488.42551096 198.98915639 488.4274313 194.80590248 488.42938709 C193.76621179 488.42987083 192.72652109 488.43035457 191.65532462 488.43085297 C174.82758254 488.43914638 157.9999117 488.46447129 141.1722007 488.49696777 C123.882774 488.53008267 106.59338343 488.54805401 89.30392486 488.55124539 C79.60182294 488.55340665 69.89982484 488.5620987 60.19775391 488.58770657 C51.93158654 488.60947435 43.66554821 488.61743429 35.39935543 488.60773978 C31.1867083 488.6032123 26.97432705 488.60499004 22.76171684 488.62450123 C18.89416143 488.64225831 15.02706337 488.64103508 11.15950225 488.62560394 C9.1206162 488.62214231 7.08172465 488.63816006 5.04290694 488.65520841 C-15.21219287 488.51593584 -33.18908562 481.30639901 -49.15967369 469.13422108 C-49.88670494 468.59281483 -50.61373619 468.05140858 -51.36279869 467.49359608 C-67.56156528 454.45556443 -78.1970657 433.47656673 -81.15967369 413.13422108 C-81.24820811 411.14493247 -81.29038871 409.15321051 -81.29389477 407.16195583 C-81.29835261 405.98248902 -81.30281046 404.80302221 -81.30740339 403.58781397 C-81.30721902 402.30106441 -81.30703466 401.01431485 -81.30684471 399.68857288 C-81.31014659 398.30061407 -81.31387284 396.91265621 -81.31798619 395.52469957 C-81.32797772 391.71541207 -81.33171839 387.90614032 -81.3343755 384.09684157 C-81.33828709 379.98616639 -81.3478649 375.87550357 -81.35658836 371.76483631 C-81.37632989 361.8391072 -81.3864166 351.91337711 -81.39531615 341.98763329 C-81.39970333 337.30857341 -81.40506907 332.62951466 -81.41030502 327.95045567 C-81.4273159 312.38738776 -81.44180843 296.82432055 -81.44905376 281.26124477 C-81.45096353 277.22460015 -81.45288388 273.18795553 -81.45483971 269.15131092 C-81.45532345 268.1480731 -81.45580719 267.14483529 -81.45630559 266.11119632 C-81.46459976 249.8719705 -81.48992695 233.63281848 -81.52242038 217.39362486 C-81.555539 200.70533304 -81.57350691 184.01707867 -81.57669801 167.32875383 C-81.57885879 157.96536676 -81.5875439 148.60208729 -81.61315918 139.23873234 C-81.63493197 131.26171059 -81.64288443 123.28482259 -81.6331924 115.3077745 C-81.62866651 111.24296119 -81.63043319 107.17842342 -81.64995384 103.11364841 C-81.79215617 71.74144352 -81.79215617 71.74144352 -77.15967369 59.13422108 C-76.82369177 58.20977125 -76.82369177 58.20977125 -76.48092234 57.26664567 C-73.02389596 47.84961362 -68.19201993 40.0490016 -62.15967369 32.13422108 C-61.61826744 31.40718983 -61.07686119 30.68015858 -60.51904869 29.93109608 C-46.58578773 12.62007489 -22.23638689 0.03779592 0 0 Z " fill="#001E36" transform="translate(81.1596736907959,-0.13422107696533203)"/>
<path d="M0 0 C1.13953125 0.51433594 2.2790625 1.02867187 3.453125 1.55859375 C19.26236313 9.36955619 31.33539835 22.6903054 37.2265625 39.41796875 C37.48179687 40.27003906 37.73703125 41.12210938 38 42 C38.44472656 43.47919922 38.44472656 43.47919922 38.8984375 44.98828125 C44.45118666 66.66438002 41.25314376 89.34486962 29.875 108.5625 C17.07029841 127.71435971 -2.38389472 136.77764385 -24.35546875 141.1875 C-33.41389626 142.58424121 -42.61169885 142.21084367 -51.75 142.125 C-53.62239103 142.11494733 -55.4947873 142.10582554 -57.3671875 142.09765625 C-61.9115899 142.07583038 -66.45573575 142.04142737 -71 142 C-70.99777939 142.86221664 -70.99555878 143.72443329 -70.99327087 144.61277771 C-70.97327005 152.72106036 -70.95802694 160.82933477 -70.94818783 168.93763638 C-70.94295949 173.10662828 -70.93586274 177.27559987 -70.92456055 181.44458008 C-70.91372992 185.46457686 -70.90772279 189.48455405 -70.90512276 193.50456429 C-70.90326882 195.04162975 -70.89964881 196.57869409 -70.89426994 198.11575127 C-70.88705716 200.26135487 -70.88600916 202.40687655 -70.88647461 204.55249023 C-70.884254 205.77604721 -70.88203339 206.99960419 -70.87974548 208.26023865 C-71 211 -71 211 -72 212 C-86.52 212 -101.04 212 -116 212 C-116 139.4 -116 66.8 -116 -8 C-22.03161486 -9.99932734 -22.03161486 -9.99932734 0 0 Z " fill="#30A7FE" transform="translate(229,133)"/>
<path d="M0 0 C1.87812378 0.01305176 1.87812378 0.01305176 3.79418945 0.02636719 C39.13962303 0.57712303 39.13962303 0.57712303 46.9375 8.375 C47.03853255 11.17493597 47.07720088 13.94968644 47.0703125 16.75 C47.07126923 17.58966309 47.07222595 18.42932617 47.07321167 19.29443359 C47.07389348 21.07324295 47.07203917 22.85205477 47.06787109 24.63085938 C47.06252283 27.36333776 47.06781605 30.09565176 47.07421875 32.828125 C47.07355797 34.5520837 47.07227681 36.27604229 47.0703125 38 C47.07233673 38.82290527 47.07436096 39.64581055 47.07644653 40.49365234 C47.05245054 46.26004946 47.05245054 46.26004946 45.9375 47.375 C40.98551619 46.91808379 36.71452559 45.7095417 32.0625 44 C18.09438242 39.15273689 -0.4477711 34.80392018 -14.9375 39.625 C-18.80698363 41.76667246 -18.80698363 41.76667246 -21.0625 45.375 C-21.72971536 48.28940699 -21.72971536 48.28940699 -21.0625 51.375 C-17.68634496 56.14579105 -14.31107564 58.77194118 -9 61.25 C-8.31244629 61.58386719 -7.62489258 61.91773438 -6.91650391 62.26171875 C-1.36066021 64.90300122 4.32990306 67.15089855 10.0625 69.375 C26.3350203 75.70827294 41.87612845 83.82405201 50.9375 99.375 C51.37191406 100.07496094 51.80632812 100.77492188 52.25390625 101.49609375 C55.27162073 107.3948318 55.3166119 113.38258393 55.375 119.875 C55.38523193 120.75325439 55.39546387 121.63150879 55.40600586 122.53637695 C55.22234772 136.31844367 49.64769152 147.19221536 40.30078125 157.08984375 C25.8545944 171.0584707 5.59054015 173.78041191 -13.625 173.6875 C-14.38161926 173.68600952 -15.13823853 173.68451904 -15.91778564 173.6829834 C-53.21196763 173.55056282 -53.21196763 173.55056282 -66.0625 162.375 C-66.90432942 159.32559933 -66.76237748 156.37763628 -66.6484375 153.234375 C-66.63994781 152.35219299 -66.63145813 151.47001099 -66.62271118 150.56109619 C-66.58916558 147.74781325 -66.51388774 144.93741394 -66.4375 142.125 C-66.40740173 140.21618728 -66.38002568 138.30732955 -66.35546875 136.3984375 C-66.2893708 131.72284996 -66.18584379 127.04941355 -66.0625 122.375 C-62.12283193 122.9754711 -59.2028898 123.63027756 -55.75 125.625 C-51.09164239 128.06037237 -46.40009976 129.65434506 -41.375 131.125 C-40.66239014 131.33543945 -39.94978027 131.54587891 -39.21557617 131.76269531 C-30.8561659 134.13528836 -22.77879525 134.58250131 -14.125 134.625 C-13.07892578 134.645625 -12.03285156 134.66625 -10.95507812 134.6875 C-3.99318116 134.7225064 2.44771807 134.42855919 7.9375 129.625 C9.42154664 126.28589505 9.44438503 123.98655586 8.9375 120.375 C5.64723439 116.52239808 2.34423725 114.26284953 -2.1875 112.0625 C-2.7851416 111.77036621 -3.3827832 111.47823242 -3.99853516 111.17724609 C-9.06151443 108.74665615 -14.24208576 106.62783083 -19.4375 104.5 C-37.38538754 97.09559539 -54.53872827 88.13670671 -62.9375 69.5625 C-66.79432949 58.63481644 -66.84339023 43.98712756 -62.0625 33.375 C-61.6603125 32.47523438 -61.258125 31.57546875 -60.84375 30.6484375 C-55.50160743 19.87511666 -47.63837519 12.86502438 -37.0625 7.375 C-36.00289063 6.80652344 -36.00289063 6.80652344 -34.921875 6.2265625 C-24.02405201 0.85837562 -11.96840307 -0.1401815 0 0 Z " fill="#30A6FD" transform="translate(358.0625,175.625)"/>
<path d="M0 0 C45.87937743 0 45.87937743 0 57.2890625 10.0078125 C65.32638215 18.39585155 66.47549642 26.16528828 66.34765625 37.40380859 C66.04538565 46.94323015 64.0088595 52.98816719 57.28125 59.99609375 C53.50377597 63.31432008 49.68619835 65.23700422 45 67 C43.55560547 67.5878125 43.55560547 67.5878125 42.08203125 68.1875 C27.93111794 72.96529957 15.75511277 71 0 71 C0 47.57 0 24.14 0 0 Z " fill="#001E37" transform="translate(158,165)"/>
</svg>
