<?xml version="1.0" encoding="UTF-8"?>
<svg version="1.1" xmlns="http://www.w3.org/2000/svg" width="2101" height="2049">
<path d="M0 0 C2.41187174 -0.0016509 4.82374321 -0.00373775 7.23561424 -0.0062201 C12.48820501 -0.01061791 17.74078716 -0.01192265 22.99337918 -0.01049176 C30.85694931 -0.00836539 38.72050975 -0.01199135 46.58407839 -0.01670653 C59.98800905 -0.02457041 73.39193704 -0.0276681 86.79586983 -0.02815247 C100.37826225 -0.0286551 113.96065169 -0.03130456 127.54304314 -0.03656006 C128.40120052 -0.03689019 129.25935789 -0.03722033 130.14352004 -0.03756046 C133.63874369 -0.03891049 137.13396734 -0.04027315 140.62919098 -0.04165257 C181.99724061 -0.05794967 223.36528967 -0.06434064 264.73334196 -0.06910044 C285.33671308 -0.0714844 305.94008387 -0.07518804 326.54345474 -0.07913754 C392.64824374 -0.09180204 458.75303272 -0.10258553 524.85782291 -0.10597799 C528.0169096 -0.10614023 531.1759963 -0.10630579 534.33508299 -0.10647238 C540.67057624 -0.10680617 547.00606949 -0.10713665 553.34156275 -0.10746694 C560.75872886 -0.10785383 568.17589497 -0.10824344 575.59306108 -0.108638 C577.71590635 -0.10875042 579.83875162 -0.10886184 581.96159689 -0.10897225 C650.12386363 -0.11252084 718.28611983 -0.12759575 786.44838255 -0.15091 C835.43091501 -0.16765722 884.41344548 -0.18312905 933.39598083 -0.18764496 C934.90779779 -0.18778519 934.90779779 -0.18778519 936.4501565 -0.18792825 C958.57843327 -0.18994755 980.70671001 -0.19110338 1002.83498688 -0.19145683 C1010.75356038 -0.191593 1018.67213389 -0.19180199 1026.5907074 -0.19205009 C1028.56059563 -0.19211165 1030.53048387 -0.19216997 1032.50037211 -0.19222504 C1063.85828769 -0.19314394 1095.21619225 -0.20310116 1126.57410421 -0.21768252 C1158.1716672 -0.23231649 1189.76921667 -0.23732924 1221.36678244 -0.22926298 C1225.73972081 -0.22814771 1230.1126592 -0.22713702 1234.48559761 -0.22618866 C1235.34275887 -0.22599869 1236.19992012 -0.22580872 1237.08305596 -0.225613 C1250.61810763 -0.22288661 1264.1531342 -0.23019794 1277.68818041 -0.24176203 C1291.0196364 -0.25294104 1304.35105714 -0.25329604 1317.68251372 -0.24239184 C1325.48312893 -0.23632922 1333.28363734 -0.23829901 1341.08424232 -0.25264382 C1346.9008013 -0.26240515 1352.71726182 -0.25622336 1358.53381265 -0.24423349 C1360.85357066 -0.24182268 1363.17334107 -0.24430006 1365.49308538 -0.25262997 C1424.45525125 -0.45022412 1482.4820766 14.66631831 1534.56552887 42.13142776 C1535.31834137 42.52378616 1536.07115387 42.91614456 1536.84677887 43.32039261 C1564.32178651 57.71020485 1589.16648455 75.98209751 1612.05381012 96.84236526 C1613.81066354 98.44347896 1615.57999038 100.03096426 1617.35849762 101.60799026 C1629.14762984 112.16681674 1639.71753175 123.74864182 1649.56552887 136.13142776 C1650.44757506 137.18914564 1651.33180944 138.24504143 1652.21787262 139.29939651 C1670.51032246 161.27908428 1685.35852526 186.31641713 1697.56552887 212.13142776 C1697.9167984 212.86587112 1698.26806793 213.60031448 1698.62998199 214.3570137 C1716.35245563 251.63047015 1727.12944179 292.13359119 1731.56552887 333.13142776 C1731.65368962 333.89519039 1731.74185037 334.65895302 1731.83268265 335.44585996 C1732.90878569 346.19075375 1732.70629566 356.97116702 1732.69695663 367.75658894 C1732.69860767 370.08008106 1732.70069458 372.4035729 1732.70317674 374.72706428 C1732.70815178 380.45128572 1732.70849531 386.17549436 1732.70688772 391.89971742 C1732.70521181 398.80761321 1732.70936298 405.71550256 1732.71366317 412.62339678 C1732.72152596 425.53283322 1732.72462468 438.4422669 1732.7251091 451.35170555 C1732.72561178 464.43259185 1732.72826164 477.51347507 1732.73351669 490.59436035 C1732.73384683 491.42090129 1732.73417696 492.24744222 1732.7345171 493.09902985 C1732.73586712 496.46549331 1732.73722979 499.83195676 1732.7386092 503.1984202 C1732.75490519 543.03989817 1732.76129712 582.88137553 1732.76605707 622.72285626 C1732.76844113 642.56601599 1732.77214478 662.40917538 1732.77609417 682.25233485 C1732.78875852 745.91895504 1732.79954207 809.58557522 1732.80293463 873.25219665 C1732.80309687 876.29467657 1732.80326243 879.33715649 1732.80342901 882.37963641 C1732.80376281 888.48126851 1732.80409329 894.5829006 1732.80442357 900.6845327 C1732.80481047 907.82789773 1732.80520007 914.97126275 1732.80559463 922.11462778 C1732.80570705 924.15910854 1732.80581847 926.20358931 1732.80592889 928.24807008 C1732.80947753 993.89512327 1732.82455275 1059.54216551 1732.84786663 1125.18921452 C1732.86461388 1172.36507849 1732.88008568 1219.54094039 1732.88460159 1266.71680737 C1732.88474182 1268.1728618 1732.88474182 1268.1728618 1732.88488488 1269.65833147 C1732.88690418 1290.9704062 1732.88806002 1312.28248089 1732.88841347 1333.59455571 C1732.88854964 1341.22104154 1732.88875863 1348.84752736 1732.88900672 1356.47401318 C1732.88906828 1358.37123724 1732.8891266 1360.26846129 1732.88918167 1362.16568535 C1732.89010056 1392.36659244 1732.90005766 1422.56748809 1732.91463916 1452.76839142 C1732.92927314 1483.19986258 1732.93428586 1513.63131972 1732.92621962 1544.06279378 C1732.92510435 1548.27435558 1732.92409365 1552.4859174 1732.92314529 1556.69747925 C1732.92295533 1557.52300787 1732.92276536 1558.34853649 1732.92256963 1559.19908114 C1732.91984326 1572.23453609 1732.92715451 1585.26996499 1732.93871866 1598.30541428 C1732.94989777 1611.14483078 1732.95025257 1623.98421069 1732.93934848 1636.8236278 C1732.93381327 1643.68282579 1732.93322368 1650.54192863 1732.9458572 1657.40112013 C1732.95728201 1663.65650275 1732.95457842 1669.91172303 1732.94119012 1676.1671003 C1732.93877937 1678.40120361 1732.94125647 1680.6353198 1732.9495866 1682.86940888 C1733.21535388 1759.24428678 1707.16421531 1835.97766585 1661.56552887 1897.13142776 C1661.13965485 1897.70747757 1660.71378082 1898.28352737 1660.27500153 1898.87703323 C1643.91345199 1920.92844717 1624.8772669 1943.1046505 1603.20224762 1960.04939651 C1600.79917512 1961.94693376 1598.49627282 1963.9284103 1596.19736481 1965.94978714 C1574.55270662 1984.83330349 1549.14611035 1999.33651124 1523.56552887 2012.13142776 C1522.76469879 2012.53844925 1521.96386871 2012.94547073 1521.13877106 2013.3648262 C1469.83976801 2039.35196447 1412.0789403 2049.31584432 1355.03464699 2049.26006222 C1352.64906864 2049.26141027 1350.2634905 2049.26319496 1347.87791276 2049.26537445 C1342.69233214 2049.26910846 1337.50676067 2049.26976373 1332.32117952 2049.26766851 C1324.5580185 2049.2645491 1316.7948666 2049.26721574 1309.03170624 2049.27096722 C1295.7977882 2049.27719142 1282.56387343 2049.27867474 1269.32995415 2049.27754974 C1255.92298083 2049.2764244 1242.51601029 2049.27746247 1229.1090374 2049.28112221 C1228.26147144 2049.28135186 1227.41390548 2049.28158151 1226.5406557 2049.28181813 C1223.08849348 2049.28275979 1219.63633127 2049.28371548 1216.18416907 2049.28468932 C1180.1895954 2049.29482827 1144.19502328 2049.29789511 1108.20044835 2049.29848143 C1104.32719331 2049.29854618 1100.45393827 2049.29861412 1096.58068323 2049.29868484 C1095.61949911 2049.29870184 1094.658315 2049.29871884 1093.66800409 2049.29873636 C1072.35865325 2049.299145 1051.04930271 2049.30133549 1029.73995202 2049.30384068 C1020.96265244 2049.30486905 1012.18535286 2049.30585909 1003.40805328 2049.30685693 C1002.4382039 2049.30696752 1001.46835451 2049.30707811 1000.46911575 2049.30719205 C944.89771819 2049.31351545 889.32632081 2049.31764124 833.75492287 2049.31718349 C831.67562626 2049.31716772 829.59632965 2049.31715198 827.51703305 2049.31713629 C818.12940242 2049.3170629 808.74177179 2049.31697473 799.35414116 2049.3168824 C795.16805086 2049.31684128 790.98196055 2049.31680113 786.79587024 2049.31676109 C784.70065736 2049.31674069 782.60544448 2049.31671967 780.5102316 2049.31669803 C714.26726851 2049.31601789 648.02431077 2049.3233336 581.78134918 2049.33723831 C565.09275629 2049.34073943 548.40416339 2049.34420893 531.71557045 2049.34750271 C530.17412706 2049.34780702 530.17412706 2049.34780702 528.6015434 2049.34811748 C496.91985006 2049.35433422 465.23815716 2049.35809838 433.55646324 2049.35936069 C432.56151283 2049.35940065 431.56656242 2049.3594406 430.541462 2049.35948176 C408.69789744 2049.36033511 386.8543329 2049.3605962 365.01076832 2049.36031138 C357.19434188 2049.3602149 349.37791543 2049.36016285 341.56148899 2049.36013265 C339.61701365 2049.36012474 337.67253832 2049.36011453 335.72806298 2049.36010203 C304.76910744 2049.35992584 273.81015649 2049.36561813 242.85120226 2049.37425584 C211.66123842 2049.38291377 180.47128091 2049.3850902 149.28131637 2049.37849452 C144.96622124 2049.3775823 140.65112611 2049.376739 136.33603096 2049.37593651 C135.49019974 2049.37577642 134.64436852 2049.37561633 133.77290605 2049.3754514 C120.40944095 2049.37310339 107.04598685 2049.37744437 93.68252382 2049.3846077 C80.52461971 2049.39151961 67.36673176 2049.39123008 54.20882799 2049.38341556 C46.50693447 2049.37905299 38.8050887 2049.38006046 31.10319919 2049.38928234 C25.36498039 2049.39553193 19.62680649 2049.39119339 13.88859199 2049.38294904 C11.59663529 2049.38124176 9.3046729 2049.38280959 7.01272202 2049.38825025 C-13.76598763 2049.43423197 -34.45956876 2048.29895837 -54.99697113 2045.00642776 C-55.97839081 2044.85019943 -55.97839081 2044.85019943 -56.97963715 2044.69081497 C-92.53661812 2038.96186099 -127.18659891 2028.20181377 -159.43447113 2012.13142776 C-160.47184418 2011.61821976 -161.50921722 2011.10501175 -162.57802582 2010.57625198 C-176.71551089 2003.53748897 -190.33288826 1995.95512105 -203.43447113 1987.13142776 C-204.16069672 1986.64319534 -204.8869223 1986.15496292 -205.63515472 1985.65193558 C-215.69757554 1978.83277436 -225.25428431 1971.48792141 -234.57167816 1963.68562698 C-236.29463349 1962.24809964 -238.03198624 1960.83050475 -239.77431488 1959.41658401 C-247.50645964 1953.05835178 -254.65234416 1946.12271957 -261.74697113 1939.06892776 C-262.66623383 1938.15893021 -263.58549652 1937.24893265 -264.53261566 1936.31135941 C-269.85325462 1930.96620802 -274.78279518 1925.45526818 -279.47524261 1919.5498848 C-281.29883549 1917.29885539 -283.19884772 1915.17689739 -285.18447113 1913.06892776 C-291.58198636 1905.94500144 -296.95061382 1897.96305612 -302.43447113 1890.13142776 C-302.87549164 1889.50494339 -303.31651215 1888.87845901 -303.77089691 1888.23299026 C-339.32724763 1837.41803886 -360.77382043 1777.68479211 -367.43447113 1716.13142776 C-367.56671225 1714.9860556 -367.56671225 1714.9860556 -367.70162492 1713.81754461 C-368.77843356 1703.06738368 -368.57523551 1692.28136936 -368.5658989 1681.49064922 C-368.56754992 1679.16545168 -368.56963683 1676.8402544 -368.572119 1674.51505759 C-368.57709407 1668.78660042 -368.57743756 1663.05815603 -368.57582998 1657.32969723 C-368.57415408 1650.41669728 -368.57830523 1643.50370376 -368.58260543 1636.59070538 C-368.59046824 1623.67172826 -368.59356694 1610.7527539 -368.59405136 1597.83377457 C-368.59455404 1584.74321292 -368.59720389 1571.65265436 -368.60245895 1558.56209373 C-368.60278909 1557.73494286 -368.60311922 1556.90779198 -368.60345936 1556.05557593 C-368.60480938 1552.68662849 -368.60617205 1549.31768105 -368.60755146 1545.94873363 C-368.62384747 1506.07781261 -368.63023938 1466.20689219 -368.63499933 1426.33596842 C-368.63738339 1406.47815543 -368.64108704 1386.62034277 -368.64503643 1366.76253004 C-368.65770078 1303.04893782 -368.66848433 1239.33534562 -368.67187689 1175.62175216 C-368.67203913 1172.57702617 -368.67220469 1169.53230017 -368.67237127 1166.48757418 C-368.67270507 1160.38143733 -368.67303555 1154.27530049 -368.67336583 1148.16916364 C-368.67375273 1141.02052434 -368.67414233 1133.87188504 -368.6745369 1126.72324574 C-368.67464932 1124.67725542 -368.67476073 1122.63126509 -368.67487115 1120.58527476 C-368.67841979 1054.88971914 -368.69349501 989.19417446 -368.71680889 923.49862302 C-368.73355613 876.28791753 -368.74902794 829.07721411 -368.75354385 781.86650562 C-368.75363734 780.89508674 -368.75373083 779.92366785 -368.75382714 778.92281203 C-368.75584644 757.5950238 -368.75700228 736.26723561 -368.75735573 714.9394473 C-368.7574919 707.30733945 -368.75770089 699.67523161 -368.75794898 692.04312377 C-368.75801054 690.14450101 -368.75806886 688.24587825 -368.75812393 686.34725548 C-368.75904283 656.12402577 -368.76899995 625.90080749 -368.78358142 595.67758154 C-368.79821536 565.22363847 -368.80322814 534.76970941 -368.79516188 504.31576345 C-368.79404661 500.10110156 -368.79303592 495.88643965 -368.79208755 491.67177773 C-368.79189759 490.84564136 -368.79170762 490.01950499 -368.79151189 489.16833419 C-368.78878551 476.12322678 -368.79609681 463.07814541 -368.80766092 450.03304366 C-368.81883997 437.18415318 -368.8191949 424.33529926 -368.80829074 411.48640818 C-368.80275549 404.62213501 -368.80216607 397.75795691 -368.81479946 390.89369022 C-368.82622412 384.63370251 -368.82352085 378.373877 -368.81013238 372.11389463 C-368.8077216 369.87812427 -368.81019887 367.64234105 -368.81852886 365.40658491 C-368.89059445 344.6809758 -367.15478987 323.99559716 -363.18447113 303.63142776 C-362.97467621 302.53580521 -362.76488129 301.44018265 -362.54872894 300.31135941 C-355.48280657 264.54076464 -343.44009861 230.38004446 -326.43447113 198.13142776 C-326.04211273 197.37861526 -325.64975433 196.62580276 -325.24550629 195.85017776 C-312.43007871 171.38120176 -296.53361058 148.95704014 -278.43447113 128.13142776 C-277.85697113 127.45338089 -277.27947113 126.77533401 -276.68447113 126.07674026 C-266.64243314 114.37776601 -255.98705821 103.33821569 -244.43447113 93.13142776 C-243.88323578 92.64077835 -243.33200043 92.15012894 -242.76406097 91.64461136 C-216.9453685 68.74513649 -187.61278108 49.87454554 -156.43447113 35.13142776 C-155.70002777 34.78015823 -154.96558441 34.4288887 -154.20888519 34.06697464 C-116.93314983 16.34341745 -76.43355142 5.57297591 -35.43447113 1.13142776 C-34.68009776 1.04326702 -33.9257244 0.95510627 -33.14849123 0.86427398 C-22.13079864 -0.24868953 -11.05983552 -0.00921851 0 0 Z " fill="#00005B" transform="translate(368.4344711303711,-0.13142776489257813)"/>
<path d="M0 0 C3.25020238 -0.00858137 6.5003418 -0.02238384 9.7505188 -0.03768539 C46.17762749 -0.19537306 82.76147617 0.71308835 118.8274231 6.30371475 C119.71494263 6.43858292 120.60246216 6.57345108 121.51687622 6.71240616 C128.31593141 7.76579802 135.07233643 8.99990435 141.8274231 10.30371475 C143.58191772 10.63532608 143.58191772 10.63532608 145.37185669 10.97363663 C209.89016268 23.37809405 271.18923756 51.5312545 318.8274231 97.30371475 C319.36496216 97.81933975 319.90250122 98.33496475 320.45632935 98.86621475 C327.79439876 105.94889892 334.55947093 113.240079 340.8274231 121.30371475 C341.61504028 122.28598038 342.40265747 123.268246 343.21414185 124.28027725 C369.33910905 157.12619037 386.14279476 195.68070166 395.8274231 236.30371475 C396.28431487 238.15531168 396.74134543 240.00687435 397.19851685 241.85840225 C402.7150132 264.65830749 405.05406321 287.53548281 405.0774231 310.99121475 C405.07843018 311.70905136 405.07943726 312.42688797 405.08047485 313.1664772 C405.05644299 339.0222927 402.70135296 364.9072278 397.8274231 390.30371475 C397.67692505 391.09761612 397.526427 391.89151749 397.37136841 392.70947647 C389.26392355 434.45476373 372.39049251 474.91843625 345.8274231 508.30371475 C345.08879028 509.23441788 344.35015747 510.165121 343.58914185 511.12402725 C335.43103599 521.24064211 326.63521277 530.67667302 317.4524231 539.86621475 C316.58359497 540.74728897 315.71476685 541.62836319 314.8196106 542.53613663 C308.80595894 548.56313219 302.51355562 554.0366929 295.8274231 559.30371475 C295.15823853 559.83746719 294.48905396 560.37121964 293.79959106 560.92114639 C269.03699151 580.49784372 241.07708061 594.7420306 211.8274231 606.30371475 C210.39629815 606.88411025 208.96529458 607.46480521 207.53445435 608.04590225 C196.57139378 612.41353501 185.24088262 615.36379828 173.8274231 618.30371475 C172.84112915 618.56184952 171.85483521 618.81998428 170.83865356 619.08594131 C147.34625064 625.2263038 124.01305539 629.10727742 99.9145813 631.83252335 C97.16319875 632.14539124 94.41517952 632.47788818 91.66799927 632.82568741 C81.33789341 634.12183557 71.03840255 634.93307618 60.6399231 635.42871475 C59.35935532 635.49175293 59.35935532 635.49175293 58.05291748 635.55606461 C40.58225293 636.3874148 23.11051097 636.49211931 5.62398911 636.49129868 C4.21753813 636.49124271 2.81108706 636.49167533 1.40463638 636.49259567 C-3.26308098 636.49563432 -7.93065723 636.48708098 -12.59835815 636.4716835 C-13.79550446 636.47048004 -14.99265076 636.46927658 -16.22607422 636.46803665 C-17.88629105 636.45860283 -17.88629105 636.45860283 -19.58004761 636.44897842 C-20.54368729 636.44516663 -21.50732697 636.44135483 -22.50016785 636.43742752 C-25.1725769 636.30371475 -25.1725769 636.30371475 -27.30322552 635.81513309 C-31.1128107 635.13613235 -34.89640741 635.06960363 -38.75460815 634.9873085 C-39.56878708 634.9665274 -40.382966 634.94574631 -41.22181702 634.92433548 C-43.8094887 634.85922012 -46.39725744 634.80013268 -48.9850769 634.74121475 C-50.74485236 634.69799333 -52.50461818 634.65437791 -54.26437378 634.61035538 C-58.56700999 634.50357795 -62.86974333 634.40220458 -67.1725769 634.30371475 C-67.17143774 634.9048675 -67.17029858 635.50602025 -67.1691249 636.12538975 C-67.10201689 671.74035849 -67.0505305 707.35531635 -67.01938092 742.97033514 C-67.01562871 747.24495462 -67.01174576 751.51957398 -67.00778198 755.79419327 C-67.00699505 756.64520693 -67.00620812 757.49622058 -67.00539734 758.37302253 C-66.99233702 772.15953227 -66.96867973 785.94600455 -66.94111852 799.73249205 C-66.91308174 813.87461905 -66.89640431 828.0167264 -66.89031142 842.15888005 C-66.88619139 850.88807721 -66.87317019 859.61716849 -66.8488275 868.34633306 C-66.83299164 874.32909997 -66.82817166 880.31181201 -66.83207277 886.29459836 C-66.83399768 889.74836991 -66.83100968 893.20195621 -66.81496048 896.65569496 C-66.80009852 900.39819265 -66.8036007 904.14023237 -66.81181335 907.88274002 C-66.80307483 908.97709608 -66.79433631 910.07145213 -66.78533298 911.1989705 C-66.82374306 917.64694143 -67.29412327 921.34466729 -71.91214085 926.09198475 C-75.1234564 927.81344349 -77.7046187 927.68457474 -81.33955383 927.69139481 C-82.06223247 927.69678034 -82.78491111 927.70216588 -83.5294891 927.70771462 C-85.95162571 927.72202482 -88.37321817 927.71488315 -90.79537964 927.70776749 C-92.53168172 927.71346947 -94.26798006 927.72043307 -96.00427246 927.72856522 C-100.72121694 927.74653087 -105.43797574 927.74532184 -110.15494418 927.73962283 C-114.09144722 927.73653586 -118.02791434 927.74261796 -121.96441227 927.74866158 C-131.25038351 927.76271642 -140.53626278 927.76113757 -149.82223511 927.74975967 C-159.40511275 927.73827751 -168.98771057 927.75235359 -178.57055134 927.77915615 C-186.7957152 927.80130084 -195.02079114 927.8079533 -203.24598271 927.80207974 C-208.15955972 927.798706 -213.07295735 927.80115283 -217.98650932 927.81833076 C-222.60686892 927.8337782 -227.22681346 927.82986892 -231.84715652 927.81102562 C-233.54308174 927.80733361 -235.23903755 927.81046602 -236.93493462 927.82091141 C-239.24997578 927.83408183 -241.56363487 927.82261053 -243.87861633 927.8049202 C-245.17407096 927.80471091 -246.46952559 927.80450163 -247.80423641 927.804286 C-251.73765776 927.21973772 -253.38041006 926.07871368 -256.1725769 923.30371475 C-257.55468908 920.53949039 -257.30044468 918.3151155 -257.30367941 915.21971244 C-257.30746405 913.91065591 -257.3112487 912.60159937 -257.31514803 911.25287446 C-257.31431565 909.78330327 -257.31339107 908.31373212 -257.31238461 906.84416103 C-257.31494226 905.28969752 -257.31793573 903.73523467 -257.32132831 902.18077275 C-257.32942925 897.87403584 -257.33122755 893.5673151 -257.33205127 889.26057147 C-257.33401426 884.58844328 -257.34168715 879.91632398 -257.34862381 875.244201 C-257.36146771 865.96188287 -257.36883055 856.67956753 -257.3745226 847.39724257 C-257.38156869 836.28556128 -257.394327 825.17388836 -257.40707179 814.06221241 C-257.43895639 785.92616249 -257.45876187 757.79010702 -257.47635731 729.65404508 C-257.48112284 722.03726954 -257.48613187 714.42049417 -257.49116254 706.80371881 C-257.52175607 660.23673148 -257.54837535 613.66974247 -257.56485575 567.10274793 C-257.56874262 556.15750755 -257.57276271 545.21226722 -257.57683999 534.26702692 C-257.57735086 532.89305489 -257.57785959 531.51908286 -257.57836619 530.14511082 C-257.59464053 486.00744836 -257.63163991 441.86984064 -257.68251999 397.73220523 C-257.7355699 351.69964197 -257.7697784 305.66711692 -257.77715885 259.63451823 C-257.77818753 253.2356895 -257.77942386 246.83686082 -257.78077888 240.43803215 C-257.78103692 239.17861218 -257.78129496 237.91919221 -257.78156082 236.62160799 C-257.78626395 216.31697613 -257.81123243 196.012417 -257.84353031 175.7078124 C-257.87549559 155.31569336 -257.88556472 134.92365657 -257.87309837 114.53151544 C-257.86633991 102.40372392 -257.87641881 90.27621408 -257.91022537 78.14846634 C-257.93113916 70.05812036 -257.93046757 61.96796638 -257.91189195 53.87761506 C-257.90191677 49.26075329 -257.90164369 44.64443035 -257.92755478 40.02761861 C-257.95091368 35.83238834 -257.94695856 31.63812976 -257.92065809 27.442925 C-257.91605718 25.92999188 -257.92164493 24.41698708 -257.93834037 22.90413908 C-258.05452645 11.65516202 -258.05452645 11.65516202 -255.86996924 8.30767589 C-253.0311583 5.83620004 -250.26039114 4.6755338 -246.52983093 4.60200882 C-245.64886497 4.57278745 -244.76789902 4.54356607 -243.86023712 4.51345921 C-242.90861443 4.50652137 -241.95699173 4.49958353 -240.97653198 4.49243546 C-239.95622139 4.46562037 -238.9359108 4.43880529 -237.8846817 4.41117764 C-234.48724487 4.32765059 -231.09020259 4.27863897 -227.69210815 4.229496 C-225.28354699 4.17691255 -222.87503278 4.12213821 -220.46656799 4.06531143 C-214.65816636 3.93353825 -208.84965831 3.82365112 -203.0406267 3.72381222 C-196.27373198 3.60639599 -189.50746408 3.46303143 -182.74113011 3.3172363 C-173.88018509 3.12642641 -165.01917609 2.93987847 -156.15783691 2.76826859 C-140.92467013 2.47271916 -125.69498115 2.12705594 -110.46554565 1.67871475 C-73.64443665 0.60766769 -36.8372467 0.07822829 0 0 Z " fill="#9898FE" transform="translate(756.1725769042969,518.6962852478027)"/>
<path d="M0 0 C0.97775391 -0.01772461 1.95550781 -0.03544922 2.96289062 -0.05371094 C11.62947792 -0.04458821 11.62947792 -0.04458821 15.5625 3.3125 C19.00541338 6.86417227 18.94124962 9.75234681 18.95018005 14.59336853 C18.95825836 15.69576247 18.95825836 15.69576247 18.96649987 16.820427 C18.9808119 19.28401926 18.97366792 21.74707665 18.96655273 24.21069336 C18.97225462 25.97655164 18.97921818 27.74240624 18.98735046 29.508255 C19.00531718 34.30577452 19.00410688 39.10311148 18.99840808 43.90065455 C18.99532126 47.90426123 19.00140303 51.90783258 19.00744683 55.91143423 C19.02150202 65.35561811 19.01992253 74.79971154 19.00854492 84.24389648 C18.99706269 93.99036708 19.0111389 103.73656255 19.0379414 113.48299688 C19.06008536 121.84828664 19.06673872 130.21348995 19.06086498 138.57880694 C19.05749108 143.57621984 19.05993921 148.57345636 19.07711601 153.57084465 C19.09256228 158.26999632 19.08865545 162.96873988 19.06981087 167.66787529 C19.06611853 169.39282655 19.06925219 171.11780789 19.07969666 172.84273148 C19.09286479 175.19717632 19.08139763 177.55026174 19.06370544 179.90464783 C19.06349616 181.22222548 19.06328688 182.53980314 19.06307125 183.8973074 C18.47938937 187.87952977 17.42228345 189.52787318 14.5625 192.3125 C11.05393249 193.4820225 8.19469186 193.48999464 4.4921875 193.55859375 C3.03669595 193.58994923 1.58121115 193.62161922 0.12573242 193.65356445 C-0.63865143 193.66892242 -1.40303528 193.6842804 -2.19058228 193.70010376 C-35.60036383 194.40292008 -68.9273146 197.2292627 -101.4375 205.3125 C-102.19289063 205.49893066 -102.94828125 205.68536133 -103.7265625 205.87744141 C-137.09315099 214.27141069 -175.37842151 225.81349687 -200.1796875 251.109375 C-202.4375 253.3125 -202.4375 253.3125 -204.4375 253.3125 C-204.746875 253.951875 -205.05625 254.59125 -205.375 255.25 C-206.4375 257.3125 -206.4375 257.3125 -207.4375 258.3125 C-207.5386104 260.71122222 -207.57404131 263.08128122 -207.56778526 265.48063278 C-207.56972869 266.24343355 -207.57167212 267.00623432 -207.57367444 267.79215026 C-207.57904294 270.38104184 -207.57722491 272.96988093 -207.57553101 275.55877686 C-207.57794665 277.42048683 -207.58080815 279.28219626 -207.58408034 281.14390492 C-207.59186694 286.28550658 -207.59345453 291.42709492 -207.59413147 296.56870174 C-207.59596524 302.10394132 -207.6035687 307.63917299 -207.61061096 313.17440796 C-207.62215606 322.77425793 -207.63039017 332.37410614 -207.63673019 341.97396088 C-207.64703598 357.13965521 -207.66759417 372.30532747 -207.68984985 387.4710083 C-207.69733021 392.65472023 -207.70474385 397.83843226 -207.71213722 403.02214432 C-207.71491307 404.96553585 -207.71491307 404.96553585 -207.717745 406.94818781 C-207.73868756 421.70829496 -207.75752163 436.46840447 -207.77539062 451.22851562 C-207.7762103 451.90324784 -207.77702998 452.57798006 -207.7778745 453.2731587 C-207.7969583 469.01458241 -207.81391951 484.75600597 -207.82623291 500.49743652 C-207.82676258 501.17434152 -207.82729225 501.85124652 -207.82783796 502.54866379 C-207.83208949 508.0046813 -207.83626585 513.46069887 -207.84042276 518.91671645 C-207.85809919 542.03777501 -207.88704345 565.15879927 -207.9268719 588.27983212 C-207.9503077 602.13370297 -207.96426968 615.9875196 -207.96619953 629.84141043 C-207.96830459 639.33205032 -207.98119754 648.82263626 -208.00267886 658.31325194 C-208.01473912 663.79428103 -208.0218385 669.27520297 -208.01596642 674.75624466 C-208.010691 679.76996406 -208.01907945 684.78346443 -208.03852279 689.79714718 C-208.04311705 691.61481977 -208.04260246 693.43251361 -208.03657441 695.250182 C-208.02913014 697.71405418 -208.03998463 700.17718409 -208.05553246 702.64100266 C-208.04896991 703.35274588 -208.04240737 704.0644891 -208.03564596 704.7978003 C-208.08772043 709.13051458 -208.78676766 711.86309696 -211.4375 715.3125 C-215.41173313 717.63082499 -219.42027565 717.60237311 -223.90782166 717.58665466 C-224.65106691 717.59189134 -225.39431217 717.59712802 -226.16008002 717.60252339 C-228.64575588 717.61750209 -231.1312255 717.61822806 -233.61694336 717.61889648 C-235.40102993 717.62651927 -237.18511322 717.63494698 -238.9691925 717.64411926 C-243.81212639 717.66605615 -248.65499715 717.67486179 -253.49797511 717.67994571 C-256.52378446 717.68358946 -259.54957728 717.68982955 -262.57538033 717.6969471 C-273.13155977 717.72143633 -283.68769009 717.73449289 -294.24389648 717.73803711 C-304.08412597 717.74167458 -313.92404397 717.77158644 -323.76417822 717.81344169 C-332.21357066 717.84812174 -340.66285972 717.86358513 -349.11232287 717.86428314 C-354.15844159 717.86507657 -359.20424282 717.87384597 -364.25028801 717.90228081 C-368.99545892 717.92842309 -373.74004816 717.9306882 -378.4852581 717.91462517 C-380.22592943 717.91280776 -381.96663392 717.91952771 -383.70723343 717.93544388 C-386.0855769 717.95586468 -388.46187733 717.94537865 -390.8401947 717.92723083 C-391.52745964 717.9404308 -392.21472459 717.95363077 -392.92281574 717.96723074 C-398.44905922 717.8710465 -400.67886624 716.06958913 -404.4375 712.3125 C-407.05056306 708.39290541 -406.71733487 705.08504236 -406.69641972 700.53752708 C-406.70011618 699.62520537 -406.70381265 698.71288366 -406.70762113 697.77291584 C-406.71766182 694.6869632 -406.71336144 691.60119223 -406.70924377 688.51522827 C-406.7135271 686.29129344 -406.71868906 684.06736015 -406.72465843 681.84342921 C-406.73857937 675.7081345 -406.74001355 669.57288923 -406.73951519 663.43758106 C-406.74098008 657.50556114 -406.75179795 651.57356061 -406.76244953 645.64155173 C-406.78395968 633.49131687 -406.79629033 621.34108886 -406.80359077 609.19083786 C-406.81089887 597.12464855 -406.82275302 585.05847676 -406.84049797 572.99229813 C-406.84215358 571.86577659 -406.84215358 571.86577659 -406.84384265 570.71649704 C-406.84947961 566.90134745 -406.85520743 563.08619801 -406.86097669 559.27104862 C-406.90180573 532.20544578 -406.93408058 505.13983905 -406.96069336 478.07421875 C-406.96230658 476.43652525 -406.96392001 474.79883175 -406.96553367 473.16113825 C-406.96633281 472.34979533 -406.96713196 471.5384524 -406.96795533 470.70252333 C-406.97199751 466.59975757 -406.97604589 462.49699182 -406.98010254 458.39422607 C-406.98090574 457.58106669 -406.98170893 456.7679073 -406.98253647 455.93010672 C-407.00114803 437.13601922 -407.02244466 418.3419351 -407.04467773 399.54785156 C-407.04562567 398.74486766 -407.04657361 397.94188376 -407.04755028 397.11456701 C-407.06928679 378.72024921 -407.09219263 360.32593329 -407.11720943 341.93161964 C-407.11826529 341.15435493 -407.11932114 340.37709022 -407.12040898 339.57627203 C-407.12992686 332.57603973 -407.13948442 325.57580748 -407.14927601 318.57557555 C-407.17355576 301.21295902 -407.1951064 283.85034677 -407.20954772 266.48771905 C-407.21964847 254.3520255 -407.23287005 242.21633891 -407.24919481 230.0806521 C-407.25789165 223.5329494 -407.26500626 216.98525251 -407.26783562 210.43754387 C-407.28734273 168.7642381 -407.8553768 127.11549117 -409.25756836 85.46435547 C-409.37790976 81.85011048 -409.48880296 78.23564237 -409.59960938 74.62109375 C-410.02563454 61.40824487 -410.70612807 48.24791512 -411.78025818 35.07070923 C-412.01660049 32.15226249 -412.23109505 29.23318935 -412.4375 26.3125 C-412.50299042 25.59749329 -412.56848083 24.88248657 -412.63595581 24.14581299 C-412.81658825 21.11714722 -412.66722373 19.62035858 -410.82931137 17.15732574 C-407.68043156 14.72856626 -405.81517138 14.80961771 -401.86016846 14.80456543 C-401.2008598 14.79832547 -400.54155115 14.7920855 -399.86226344 14.78565645 C-397.65423048 14.76970881 -395.44729884 14.78233657 -393.23925781 14.79492188 C-391.65560258 14.78950128 -390.07195239 14.78237898 -388.48831177 14.77368164 C-384.18637026 14.75543173 -379.8848121 14.76252415 -375.58286381 14.77519798 C-371.07824227 14.78532415 -366.57365359 14.77593271 -362.06903076 14.76965332 C-354.49973665 14.7623728 -346.93059855 14.77197208 -339.36132812 14.79101562 C-330.62031931 14.81275376 -321.87968416 14.80575698 -313.13868451 14.78371 C-305.62937902 14.76552995 -298.12018575 14.76301134 -290.61086535 14.77346468 C-286.12812099 14.77968936 -281.6455519 14.78056419 -277.16281891 14.76731873 C-272.94377642 14.755724 -268.72521279 14.76385166 -264.50622177 14.78689575 C-262.96153176 14.79216494 -261.41680115 14.79069983 -259.87212753 14.78184509 C-250.05626093 14.73078515 -242.79936961 15.16116622 -235.25 22.0625 C-228.98903831 30.01238596 -227.17220041 42.1562601 -225.8984375 51.92578125 C-225.46988069 55.07458427 -224.92330012 58.18456235 -224.3359375 61.30712891 C-221.49031852 76.52212355 -220.2469525 91.86899831 -219.4375 107.3125 C-218.41311545 106.31613813 -217.39327287 105.31510713 -216.375 104.3125 C-215.80652344 103.755625 -215.23804688 103.19875 -214.65234375 102.625 C-212.75452864 100.64350697 -210.96997164 98.61962563 -209.18359375 96.5390625 C-205.52849788 92.33990044 -201.62772028 88.48704766 -197.5625 84.6875 C-196.45612183 83.65326904 -196.45612183 83.65326904 -195.32739258 82.59814453 C-177.36681573 65.97016966 -157.78466848 51.32147458 -136.4375 39.3125 C-135.57705078 38.82426758 -134.71660156 38.33603516 -133.83007812 37.83300781 C-113.8642513 26.56197654 -93.75765173 16.95058618 -71.59179688 10.91210938 C-69.68051315 10.38013829 -67.7841029 9.79535818 -65.890625 9.203125 C-44.77590338 2.63634555 -22.0427956 0.243068 0 0 Z " fill="#9898FE" transform="translate(1690.4375,730.6875)"/>
<path d="M0 0 C1.03829453 -0.00426498 2.07658905 -0.00852997 3.14634705 -0.01292419 C4.85503967 -0.01224442 4.85503967 -0.01224442 6.59825134 -0.0115509 C7.79872604 -0.01490952 8.99920074 -0.01826813 10.23605347 -0.02172852 C13.53451917 -0.02961373 16.8329219 -0.03290721 20.13139272 -0.0335443 C22.19945942 -0.03425594 24.26751957 -0.03639271 26.33558464 -0.03904152 C33.57288402 -0.04830556 40.81016498 -0.05237619 48.04747009 -0.05158997 C54.75288804 -0.05099293 61.45822456 -0.06146778 68.16362196 -0.07733363 C73.94481148 -0.09051605 79.72597481 -0.09576924 85.5071792 -0.09513456 C88.94840916 -0.09488214 92.38956717 -0.09758715 95.83078194 -0.10831261 C114.35213912 -0.15594478 132.34039327 0.13012892 150.41441345 4.57121277 C151.35268982 4.79438171 152.29096619 5.01755066 153.25767517 5.2474823 C155.83369577 5.86488309 158.40554468 6.49727855 160.97691345 7.13371277 C162.01203064 7.37992371 163.04714783 7.62613464 164.1136322 7.87980652 C189.07467642 14.18864187 213.39099318 25.01316766 231.97691345 43.13371277 C232.96467316 44.06005045 233.95298 44.98580499 234.9417572 45.91105652 C257.33238015 67.18604419 270.75947248 99.25429532 272.15391541 130.04167175 C272.18001523 131.40428649 272.20020922 132.76702424 272.2151947 134.12980652 C272.22494324 134.87233673 272.23469177 135.61486694 272.24473572 136.37989807 C272.4873086 159.67811336 271.23787987 182.0883185 262.97691345 204.13371277 C262.54765564 205.30675964 262.11839783 206.47980652 261.6761322 207.68840027 C253.7416345 227.75932685 239.17048476 244.33667111 221.97691345 257.13371277 C220.78388611 258.03283386 220.78388611 258.03283386 219.5667572 258.95011902 C201.98459766 271.72934717 182.65552887 278.99084899 161.97691345 285.13371277 C161.18687927 285.36977234 160.39684509 285.60583191 159.58287048 285.8490448 C149.54415545 288.79879912 139.39003555 290.93224151 129.10191345 292.82121277 C128.01636169 293.02375671 126.93080994 293.22630066 125.81236267 293.4349823 C108.43504805 296.49226773 91.0390428 297.44012591 73.42222595 297.36418152 C71.53761324 297.36298352 69.65299992 297.36253786 67.76838684 297.36279297 C63.86096843 297.36124737 59.95364414 297.35310551 56.04624939 297.33952332 C51.08114189 297.3224653 46.11613628 297.3187123 41.15100288 297.3194685 C37.27472493 297.31919456 33.39846846 297.31367887 29.52219772 297.30646706 C27.69247982 297.30332579 25.86275954 297.30132386 24.03303909 297.30057335 C21.46627534 297.29836444 18.89961197 297.28952784 16.33287048 297.27897644 C15.24298073 297.27965622 15.24298073 297.27965622 14.131073 297.28034973 C6.69222293 297.23642554 -0.5494072 296.63195806 -8.02308655 296.13371277 C-8.02308655 198.78371277 -8.02308655 101.43371277 -8.02308655 1.13371277 C-5.04919684 0.1424162 -3.10320259 0.00575897 0 0 Z " fill="#00005B" transform="translate(698.0230865478516,692.8662872314453)"/>
</svg>
