<?xml version="1.0" encoding="UTF-8"?>
<svg version="1.1" xmlns="http://www.w3.org/2000/svg" width="2048" height="2048">
<path d="M0 0 C1.47539609 -0.00247617 1.47539609 -0.00247617 2.98059816 -0.00500236 C6.26697166 -0.0093063 9.55329988 -0.00653267 12.83967447 -0.00377727 C15.23362906 -0.00542789 17.62758338 -0.00751462 20.02153724 -0.00999737 C25.23793704 -0.01439748 30.45432816 -0.01569919 35.67072922 -0.01426902 C43.48012073 -0.01214372 51.28950245 -0.01576713 59.09889245 -0.0204838 C72.41008554 -0.02834983 85.72127595 -0.03144547 99.03247118 -0.03192973 C112.52175448 -0.03243229 126.01103478 -0.03508092 139.5003171 -0.04033732 C140.35244686 -0.04066746 141.20457661 -0.04099759 142.08252849 -0.04133773 C145.55317615 -0.04268774 149.02382381 -0.04405041 152.49447146 -0.04542983 C193.57680906 -0.06172908 234.65914609 -0.0681182 275.74148637 -0.0728777 C296.20201245 -0.07526147 316.66253821 -0.07896507 337.12306404 -0.0829148 C402.76669232 -0.09557954 468.41032059 -0.10636298 534.05395007 -0.10975526 C537.19116758 -0.1099175 540.32838508 -0.11008306 543.46560259 -0.11024964 C549.7572595 -0.11058344 556.0489164 -0.11091392 562.34057331 -0.1112442 C569.70645142 -0.1116311 577.07232954 -0.11202071 584.43820765 -0.11241527 C586.54637569 -0.11252769 588.65454373 -0.1126391 590.76271177 -0.11274952 C658.45362653 -0.1162981 726.14453066 -0.13137286 793.83544137 -0.15468726 C842.47767546 -0.17143405 891.11990755 -0.18690614 939.76214457 -0.19142222 C941.26340349 -0.19156245 941.26340349 -0.19156245 942.79499089 -0.19170551 C964.76855514 -0.1937248 986.74211936 -0.19488065 1008.7156837 -0.1952341 C1016.57886858 -0.19537027 1024.44205345 -0.19557926 1032.30523831 -0.19582735 C1034.26135527 -0.19588891 1036.21747223 -0.19594723 1038.17358919 -0.1960023 C1069.31486428 -0.19692128 1100.45612827 -0.20687942 1131.5973997 -0.22145979 C1162.97617252 -0.23609252 1194.35493173 -0.24110727 1225.73370735 -0.23304025 C1230.07598123 -0.23192497 1234.41825513 -0.23091428 1238.76052904 -0.22996593 C1240.03726041 -0.22968097 1240.03726041 -0.22968097 1241.33978434 -0.22939027 C1254.78225209 -0.22666343 1268.22469457 -0.23397665 1281.66715682 -0.24553929 C1294.90609236 -0.25671583 1308.14499242 -0.25707574 1321.38392855 -0.24616911 C1329.13131722 -0.24010449 1336.87859835 -0.24208173 1344.62597672 -0.25642108 C1350.40142297 -0.26617672 1356.17676997 -0.26000574 1361.95220799 -0.24801075 C1364.25662373 -0.24559848 1366.56105193 -0.2480827 1368.86545389 -0.25640723 C1390.56205448 -0.32955857 1412.08306777 1.57780937 1433.36913157 5.8776505 C1435.29946238 6.26062291 1435.29946238 6.26062291 1437.26878977 6.65133214 C1449.29682011 9.08957056 1461.01528876 12.33724855 1472.68163157 16.1276505 C1473.5372468 16.40189855 1474.39286203 16.67614659 1475.274405 16.95870519 C1516.49220938 30.30466351 1554.17910027 51.82929167 1587.68163157 79.1276505 C1588.51670237 79.80392491 1588.51670237 79.80392491 1589.36864328 80.49386144 C1598.42612674 87.89426398 1606.77123068 96.01085365 1615.05663157 104.2526505 C1615.56691904 104.75767095 1616.07720652 105.26269139 1616.60295725 105.78301549 C1623.42468938 112.55021882 1629.70268185 119.59525765 1635.68163157 127.1276505 C1636.65807814 128.30158065 1637.63797305 129.47266134 1638.62303782 130.63936925 C1664.36639553 161.60280063 1683.57115855 198.18765722 1696.68163157 236.1276505 C1696.96732004 236.94894444 1697.25300852 237.77023839 1697.54735422 238.61642003 C1704.07905013 257.63668701 1708.40917904 277.15473493 1711.49413157 297.0026505 C1711.65197626 298.01638234 1711.65197626 298.01638234 1711.81300974 299.05059361 C1713.58127039 310.53019847 1714.83729927 321.83296798 1714.80928206 333.45358163 C1714.81175823 334.93020571 1714.81175823 334.93020571 1714.81428442 336.43666058 C1714.81858842 339.72582313 1714.81581472 343.01494044 1714.81305933 346.30410409 C1714.81470995 348.70006673 1714.81679668 351.09602909 1714.81927943 353.49199101 C1714.82367957 358.7127904 1714.82498125 363.93358111 1714.82355109 369.15438176 C1714.8214258 376.9703448 1714.82504917 384.78629807 1714.82976586 392.6022596 C1714.83763191 405.92461451 1714.84072754 419.24696673 1714.8412118 432.56932378 C1714.84171435 446.06989413 1714.84436297 459.57046149 1714.84961939 473.07103086 C1714.84994952 473.92387104 1714.85027966 474.77671122 1714.85061979 475.65539504 C1714.85196981 479.12893366 1714.85333248 482.60247227 1714.8547119 486.07601088 C1714.87101104 527.19225847 1714.87740021 568.30850548 1714.88215977 609.42475576 C1714.8845435 629.90169343 1714.8882471 650.37863078 1714.89219687 670.8555682 C1714.90486149 736.5505451 1714.91564502 802.24552199 1714.91903732 867.94050009 C1714.91919956 871.08015276 1714.91936512 874.21980542 1714.91953171 877.35945809 C1714.9198655 883.6560054 1714.92019599 889.95255272 1714.92052627 896.24910003 C1714.92091316 903.6207137 1714.92130277 910.99232737 1714.92169733 918.36394104 C1714.92180975 920.47375107 1714.92192117 922.58356111 1714.92203158 924.69337114 C1714.92558031 992.43970122 1714.94065571 1060.1860207 1714.96396933 1127.93234673 C1714.98071559 1176.6145128 1714.99618797 1225.29667686 1715.00070429 1273.97884583 C1715.00084452 1275.48125897 1715.00084452 1275.48125897 1715.00098758 1277.01402388 C1715.00300684 1299.00420128 1715.00416271 1320.99437865 1715.00451616 1342.98455614 C1715.00465233 1350.85362036 1715.00486132 1358.72268458 1715.00510942 1366.59174879 C1715.00517098 1368.54933298 1715.0052293 1370.50691717 1715.00528437 1372.46450136 C1715.00620342 1403.63186696 1715.01616252 1434.79922147 1715.03074185 1465.96658342 C1715.04537291 1497.3702754 1715.05039036 1528.77395379 1715.04232231 1560.17764858 C1715.04120702 1564.52285044 1715.04019634 1568.86805231 1715.03924799 1573.21325421 C1715.03905802 1574.06498633 1715.03886805 1574.91671844 1715.03867233 1575.79426062 C1715.03594493 1589.24871172 1715.04326052 1602.70313759 1715.05482136 1616.15758321 C1715.06599476 1629.40660005 1715.06636092 1642.65558143 1715.05545117 1655.90459885 C1715.04938403 1663.65901484 1715.05137067 1671.41332341 1715.06570315 1679.16772913 C1715.07545158 1684.94659776 1715.06929429 1690.7253671 1715.05729282 1696.5042275 C1715.05487869 1698.81134204 1715.05737154 1701.11846901 1715.0656893 1703.42556981 C1715.13726287 1724.69464703 1713.15313806 1745.69299158 1708.99413157 1766.5651505 C1708.74066965 1767.85026525 1708.48720774 1769.13537999 1708.22606516 1770.45943761 C1697.00312512 1825.91103378 1671.30035317 1877.4137649 1635.68163157 1921.1276505 C1635.23078196 1921.68436437 1634.77993235 1922.24107823 1634.31542063 1922.81466222 C1626.91501808 1931.87214567 1618.79842842 1940.21724961 1610.55663157 1948.5026505 C1610.05161112 1949.01293797 1609.54659067 1949.52322545 1609.02626657 1950.04897618 C1602.25906325 1956.87070832 1595.21402441 1963.14870078 1587.68163157 1969.1276505 C1586.50770141 1970.10409708 1585.33662072 1971.08399199 1584.16991282 1972.06905675 C1553.27145848 1997.7583918 1516.61624619 2017.18988656 1478.68163157 2030.1276505 C1477.65489328 2030.47811437 1476.628155 2030.82857823 1475.57030344 2031.18966222 C1445.2580973 2041.36724351 1412.48286188 2048.33285031 1380.36967516 2048.255301 C1378.89532071 2048.25777717 1378.89532071 2048.25777717 1377.39118132 2048.26030336 C1374.10717482 2048.26460725 1370.82321363 2048.26183368 1367.53920603 2048.25907826 C1365.14695687 2048.26072889 1362.75470798 2048.26281562 1360.36245954 2048.26529837 C1355.14980013 2048.26969846 1349.93714941 2048.2710002 1344.72448874 2048.26957002 C1336.92069674 2048.26744471 1329.11691453 2048.27106814 1321.31312405 2048.2757848 C1308.01147164 2048.28365081 1294.70982192 2048.28674647 1281.40816736 2048.28723073 C1267.9285594 2048.28773329 1254.44895445 2048.29038193 1240.96934748 2048.29563832 C1239.69206775 2048.29613352 1239.69206775 2048.29613352 1238.38898439 2048.29663873 C1234.92082071 2048.29798874 1231.45265704 2048.29935141 1227.98449337 2048.30073083 C1186.93159882 2048.31703006 1145.87870485 2048.32341919 1104.82580761 2048.3281787 C1084.37993479 2048.33056247 1063.9340623 2048.33426607 1043.48818973 2048.3382158 C977.89153347 2048.35088054 912.29487724 2048.36166398 846.69821978 2048.36505626 C843.56324835 2048.3652185 840.42827692 2048.36538406 837.29330549 2048.36555064 C831.00615333 2048.36588444 824.71900116 2048.36621492 818.431849 2048.3665452 C811.07124517 2048.3669321 803.71064133 2048.3673217 796.35003749 2048.36771626 C794.24337901 2048.36782868 792.13672053 2048.3679401 790.03006204 2048.36805052 C722.38764972 2048.3715991 654.74524802 2048.38667385 587.10283975 2048.40998826 C538.49544717 2048.42673506 489.8880566 2048.44220715 441.28066111 2048.44672322 C440.28053775 2048.44681671 439.2804144 2048.44691019 438.24998428 2048.44700651 C416.29213352 2048.4490258 394.33428279 2048.45018165 372.37643195 2048.4505351 C364.51886909 2048.45067127 356.66130624 2048.45088026 348.80374339 2048.45112835 C346.84902514 2048.45118991 344.89430689 2048.45124823 342.93958863 2048.4513033 C311.82063617 2048.45222228 280.70169481 2048.4621804 249.582746 2048.47676079 C218.22644509 2048.49139355 186.87015779 2048.49640825 155.51385407 2048.48834124 C151.17468028 2048.48722597 146.83550648 2048.48621528 142.49633265 2048.48526692 C141.64578614 2048.48507696 140.79523964 2048.48488699 139.918919 2048.48469126 C126.48610371 2048.48196444 113.0533137 2048.48927761 99.6205039 2048.50084029 C86.39104234 2048.51201689 73.16161628 2048.51237668 59.93215413 2048.50147011 C52.19033108 2048.49540553 44.44861563 2048.4973826 36.70680288 2048.51172208 C30.93547132 2048.52147785 25.16423907 2048.51530661 19.39291574 2048.50331175 C17.09016705 2048.50089951 14.78740589 2048.50338357 12.48467098 2048.51170823 C-67.39438814 2048.78122379 -144.65527112 2019.37165572 -206.31836843 1969.1276505 C-206.8750823 1968.67680089 -207.43179617 1968.22595128 -208.00538015 1967.76143956 C-217.06286361 1960.36103702 -225.40796755 1952.24444735 -233.69336843 1944.0026505 C-234.20365591 1943.49763005 -234.71394339 1942.99260961 -235.23969412 1942.47228551 C-242.06142625 1935.70508218 -248.33941872 1928.66004334 -254.31836843 1921.1276505 C-255.29481501 1919.95372035 -256.27470992 1918.78263966 -257.25977468 1917.61593175 C-283.0031324 1886.65250037 -302.20789542 1850.06764377 -315.31836843 1812.1276505 C-315.60405691 1811.30635655 -315.88974539 1810.48506261 -316.18409109 1809.63888097 C-322.715787 1790.61861399 -327.04591591 1771.10056607 -330.13086843 1751.2526505 C-330.23609823 1750.57682927 -330.34132803 1749.90100804 -330.44974661 1749.20470738 C-332.21800726 1737.72510252 -333.47403614 1726.42233302 -333.44601893 1714.80171937 C-333.44766971 1713.81730331 -333.44932049 1712.83288726 -333.45102129 1711.81864042 C-333.45532529 1708.52947787 -333.45255159 1705.24036056 -333.4497962 1701.95119691 C-333.45144682 1699.55523427 -333.45353355 1697.1592719 -333.4560163 1694.76330999 C-333.46041643 1689.5425106 -333.46171812 1684.32171989 -333.46028796 1679.10091924 C-333.45816266 1671.2849562 -333.46178604 1663.46900293 -333.46650273 1655.65304139 C-333.47436878 1642.33068649 -333.47746441 1629.00833427 -333.47794867 1615.68597722 C-333.47845122 1602.18540687 -333.48109984 1588.68483951 -333.48635626 1575.18427014 C-333.48668639 1574.33142996 -333.48701653 1573.47858978 -333.48735666 1572.59990596 C-333.48870668 1569.12636734 -333.49006935 1565.65282873 -333.49144877 1562.17929012 C-333.50774791 1521.06304253 -333.51413708 1479.94679551 -333.51889664 1438.83054524 C-333.52128037 1418.35360757 -333.52498397 1397.87667022 -333.52893374 1377.3997328 C-333.54159836 1311.7047559 -333.55238189 1246.00977901 -333.55577419 1180.31480091 C-333.55593643 1177.17514824 -333.55610199 1174.03549558 -333.55626858 1170.89584291 C-333.55660237 1164.5992956 -333.55693285 1158.30274828 -333.55726314 1152.00620097 C-333.55765003 1144.6345873 -333.55803964 1137.26297363 -333.5584342 1129.89135996 C-333.55854662 1127.78154993 -333.55865804 1125.67173989 -333.55876845 1123.56192986 C-333.56231718 1055.81559977 -333.57739258 988.0692803 -333.6007062 920.32295427 C-333.61745246 871.6407882 -333.63292484 822.95862414 -333.63744116 774.27645516 C-333.63753464 773.27484641 -333.63762813 772.27323765 -333.63772445 771.24127712 C-333.63974371 749.25109972 -333.64089958 727.26092235 -333.64125303 705.27074486 C-333.6413892 697.40168064 -333.64159819 689.53261642 -333.64184629 681.66355221 C-333.64190785 679.70596802 -333.64196617 677.74838383 -333.64202124 675.79079964 C-333.64294029 644.62343404 -333.65289939 613.45607953 -333.66747872 582.28871758 C-333.68210978 550.8850256 -333.68712723 519.48134721 -333.67905918 488.07765242 C-333.67794389 483.73245056 -333.67693321 479.38724868 -333.67598486 475.04204679 C-333.67579489 474.19031467 -333.67560492 473.33858256 -333.6754092 472.46104038 C-333.6726818 459.00658928 -333.67999739 445.55216341 -333.69155823 432.09771779 C-333.70273163 418.84870095 -333.70309779 405.59971957 -333.69218804 392.35070215 C-333.6861209 384.59628616 -333.68810753 376.84197759 -333.70244002 369.08757187 C-333.71218845 363.30870324 -333.70603116 357.5299339 -333.69402969 351.7510735 C-333.69161556 349.44395896 -333.69410841 347.13683199 -333.70242617 344.82973118 C-333.77424519 323.48771496 -331.76748979 302.44043804 -327.56836843 281.5026505 C-327.31305349 280.21125157 -327.05773855 278.91985265 -326.79468679 277.58932042 C-324.36061457 265.54237237 -321.11423085 253.8107999 -317.31836843 242.1276505 C-317.04412039 241.27203526 -316.76987234 240.41642003 -316.48731375 239.53487706 C-303.14135543 198.31707269 -281.61672727 160.63018179 -254.31836843 127.1276505 C-253.64209402 126.2925797 -253.64209402 126.2925797 -252.9521575 125.44063878 C-245.55175495 116.38315533 -237.43516529 108.03805138 -229.19336843 99.7526505 C-228.68834799 99.24236302 -228.18332754 98.73207555 -227.66300344 98.20632482 C-220.89580012 91.38459268 -213.85076128 85.10660022 -206.31836843 79.1276505 C-205.14443828 78.15120392 -203.97335759 77.17130901 -202.80664968 76.18624425 C-171.82590204 50.42848958 -135.25971924 31.28319425 -97.31836843 18.1276505 C-96.5236614 17.84727941 -95.72895437 17.56690831 -94.91016531 17.27804112 C-64.931469 6.80231032 -31.84054552 -0.07683414 0 0 Z " fill="#330000" transform="translate(333.318368434906,-0.12765049934387207)"/>
<path d="M0 0 C0.93221341 0.00037972 1.86442682 0.00075944 2.82488912 0.00115067 C3.89628261 -0.00084038 4.9676761 -0.00283143 6.07153606 -0.00488281 C7.26314435 -0.00196997 8.45475263 0.00094287 9.68247026 0.00394398 C10.93697526 0.00308955 12.19148026 0.00223513 13.48400056 0.00135481 C16.98203577 -0.0008925 20.48004065 0.00313434 23.97807199 0.00813287 C27.74427911 0.01243382 31.5104844 0.01099121 35.27669328 0.0102306 C41.80719531 0.00970514 48.33768737 0.01285425 54.86818689 0.01846844 C64.31030206 0.02658044 73.75241239 0.02919835 83.19453066 0.03045643 C98.51212276 0.03264742 113.82970954 0.03930879 129.14729875 0.04875904 C144.03076202 0.05793194 158.91422385 0.06501337 173.79768938 0.06926686 C174.7144343 0.06952958 175.63117922 0.0697923 176.57570428 0.07006299 C181.17454352 0.07136798 185.77338276 0.0726317 190.37222201 0.07387489 C228.5505879 0.08424898 266.72894786 0.10186857 304.90730852 0.1241985 C305.16030371 0.82623402 305.41329891 1.52826954 305.67396063 2.25157887 C308.1104838 9.01243724 310.54743068 15.77314268 312.98480344 22.5336948 C314.23653786 26.00567899 315.48813265 29.47771334 316.73935503 32.94988209 C323.10625956 50.6177769 329.49722534 68.27658021 335.9277305 85.92143971 C343.55812739 106.86118865 351.12008191 127.82436483 358.62947649 148.80779225 C364.63545074 165.58865343 370.66987411 182.35914532 376.71980852 199.1241985 C376.94882356 199.75882511 377.17783861 200.39345173 377.4137935 201.04730946 C379.50773658 206.84971086 381.6018881 212.65203702 383.69627947 218.45427662 C386.73153037 226.86348536 389.76361437 235.27383037 392.79356188 243.68495136 C394.87270707 249.45652454 396.95236575 255.2279127 399.03230852 260.9991985 C399.26025354 261.63168507 399.48819856 262.26417164 399.72305101 262.91582447 C406.48034069 281.66410445 413.27403141 300.39891397 420.09480852 319.1241985 C427.32971865 338.98708356 434.49557099 358.87373444 441.61849016 378.77703053 C447.73254801 395.85973142 453.87484667 412.93210759 460.03230852 429.9991985 C460.26589823 430.64669308 460.49948793 431.29418766 460.74015611 431.96130329 C467.29202629 450.12225187 473.85412737 468.27949181 480.4241237 486.43389088 C488.85284905 509.72494893 497.2531039 533.02627222 505.6539821 556.32738453 C508.91107242 565.36140914 512.16871897 574.39523298 515.42683977 583.428886 C515.65323641 584.05660908 515.87963304 584.68433216 516.11289018 585.33107716 C517.71100966 589.76212481 519.30915562 594.1931629 520.90730852 598.6241985 C522.73415012 603.68929593 524.56097742 608.75439851 526.38777727 613.819511 C526.6140732 614.4469521 526.84036913 615.0743932 527.07352251 615.72084767 C530.34032715 624.7786376 533.60647578 633.8366639 536.8722629 642.89482075 C538.98797146 648.76299714 541.10383665 654.63111705 543.21980852 660.4991985 C543.45096361 661.14024525 543.6821187 661.781292 543.92027849 662.44176441 C550.41096081 680.4415547 556.91044856 698.43813185 563.42293352 716.43004566 C567.67191809 728.16893389 571.9135423 739.91044267 576.14558977 751.6554485 C576.60351893 752.92624199 577.06145046 754.19703463 577.51938432 755.46782643 C577.74792195 756.10203762 577.97645958 756.73624882 578.21192259 757.38967854 C579.38120179 760.63452433 580.55049592 763.87936474 581.71980852 767.1241985 C581.95223379 767.76920307 582.18465906 768.41420765 582.42412752 769.07875782 C589.28086445 788.10617217 596.1720973 807.12066415 603.09480852 826.1241985 C611.67075515 849.66802022 620.14640493 873.24687873 628.58232683 896.84119374 C631.11200961 903.91262985 633.65612109 910.97874635 636.20808977 918.04216725 C637.19316868 920.77210663 638.1780796 923.50210659 639.16298479 926.23210865 C639.77852597 927.93612597 640.39516398 929.63974752 641.01296037 931.3429485 C641.84899688 933.64795048 642.68129447 935.95426953 643.51277727 938.26091725 C643.75861055 938.93519261 644.00444383 939.60946797 644.25772661 940.30417591 C645.90730852 944.89656992 645.90730852 944.89656992 645.90730852 947.1241985 C552.51730852 947.1241985 459.12730852 947.1241985 362.90730852 947.1241985 C358.61730852 933.5941985 354.32730852 920.0641985 349.90730852 906.1241985 C348.58730852 902.4941985 347.26730852 898.8641985 345.90730852 895.1241985 C345.11449947 892.53901332 344.34819401 889.94548313 343.61433977 887.3429485 C340.54901824 876.68125072 337.06012834 866.16115278 333.59480852 855.6241985 C328.29615551 839.47903529 323.08637297 823.30877491 317.90730852 807.1241985 C201.41730852 806.7941985 84.92730852 806.4641985 -35.09269148 806.1241985 C-35.75269148 809.0941985 -36.41269148 812.0641985 -37.09269148 815.1241985 C-37.68431702 817.17586117 -38.30628451 819.21913964 -38.96525007 821.25017506 C-39.32718458 822.37260105 -39.68911909 823.49502705 -40.06202132 824.65146595 C-40.45112684 825.84387394 -40.84023237 827.03628193 -41.24112898 828.2648235 C-41.65462262 829.54195513 -42.06775083 830.81920513 -42.48053938 832.09656483 C-43.57858504 835.4910378 -44.68161145 838.8838724 -45.78562361 842.27640873 C-46.92750014 845.78840071 -48.06454373 849.30195657 -49.20206648 852.81536061 C-51.42786227 859.68748539 -53.65861435 866.55799108 -55.89139754 873.4278484 C-57.85796441 879.47892331 -59.82249564 885.53065915 -61.78638655 891.58260304 C-63.0185148 895.37934087 -64.25167558 899.17572846 -65.48868757 902.97087818 C-67.3682295 908.74523363 -69.22091619 914.52290702 -70.96769148 920.33904225 C-73.78670872 929.34020573 -76.97673559 938.22146739 -80.09269148 947.1241985 C-170.51269148 947.1241985 -260.93269148 947.1241985 -354.09269148 947.1241985 C-352.20234707 940.82305045 -350.29096388 934.68652555 -347.99503523 928.5460735 C-347.69299177 927.73046452 -347.39094832 926.91485554 -347.07975203 926.07453114 C-346.06619742 923.33997642 -345.04819224 920.60710084 -344.03019148 917.8741985 C-343.29302538 915.88821408 -342.55613693 913.9021266 -341.81949812 911.91594654 C-340.1728243 907.478003 -338.52407589 903.04083692 -336.87394148 898.60417897 C-334.10400844 891.15631109 -331.33867446 883.70674033 -328.57384497 876.25697666 C-318.79330869 849.90427649 -309.00183019 823.55564058 -299.19495589 797.21272999 C-292.48443275 779.18684765 -285.78885367 761.15541901 -279.09269148 743.1241985 C-271.79942777 723.48512126 -264.50446882 703.8466929 -257.19523054 684.21355397 C-250.48462963 666.18739187 -243.78895438 648.15569022 -237.09269148 630.1241985 C-229.79942777 610.48512126 -222.50446882 590.8466929 -215.19523054 571.21355397 C-208.48462963 553.18739187 -201.78895438 535.15569022 -195.09269148 517.1241985 C-188.09792816 498.288914 -181.10267818 479.45382409 -174.09269148 460.6241985 C-167.29223378 442.35662963 -160.5041649 424.08446589 -153.71769148 405.8116985 C-153.44247916 405.07068772 -153.16726683 404.32967694 -152.88371474 403.56621128 C-148.61981949 392.08562236 -144.35622673 380.60492111 -140.09269148 369.1241985 C-135.55118802 356.89497122 -131.00958756 344.66577997 -126.46769148 332.4366985 C-126.19167349 331.69351242 -125.9156555 330.95032635 -125.63127333 330.18461949 C-118.82412958 311.8563036 -112.0138695 293.52915953 -105.19248396 275.20613819 C-98.48279252 257.18245027 -91.7880367 239.15321911 -85.09269148 221.1241985 C-77.79942777 201.48512126 -70.50446882 181.8466929 -63.19523054 162.21355397 C-57.34783823 146.5061616 -51.51181818 130.79455258 -45.67685229 115.08254105 C-43.6781685 109.70061759 -41.67931737 104.31875631 -39.68033797 98.93694264 C-39.40209024 98.18782014 -39.12384251 97.43869765 -38.83716303 96.66687447 C-37.45689831 92.95082451 -36.07661299 89.23478221 -34.69631392 85.51874501 C-32.30999221 79.09423944 -29.92382094 72.66967832 -27.53849226 66.24480397 C-14.56275869 31.29624603 -14.56275869 31.29624603 -8.38489729 14.93282276 C-7.67995142 13.06480908 -6.97722328 11.19595895 -6.27457625 9.32707936 C-5.86521834 8.24692555 -5.45586043 7.16677174 -5.03409773 6.053886 C-4.5034471 4.64985523 -4.5034471 4.64985523 -3.96207625 3.21746022 C-2.69214194 0.1597751 -2.69214194 0.1597751 0 0 Z " fill="#FE9900" transform="translate(696.0926914811134,541.8758015036583)"/>
<path d="M0 0 C83.82 0 167.64 0 254 0 C254 246.18 254 492.36 254 746 C170.18 746 86.36 746 0 746 C0 499.82 0 253.64 0 0 Z " fill="#FE9900" transform="translate(1377,743)"/>
<path d="M0 0 C0.89284698 -0.00807175 1.78569397 -0.01614349 2.70559692 -0.02445984 C4.58626428 -0.03819265 6.46695544 -0.04896228 8.34765625 -0.05688477 C10.22826708 -0.06833224 12.10884732 -0.08866735 13.98925781 -0.1184082 C51.63342852 -0.71094307 87.99326797 11.90839365 115.3203125 38.23828125 C136.25023581 59.72009506 145.47852463 87.21295368 145.56054688 116.68969727 C145.57017966 118.7720652 145.60124633 120.85341243 145.6328125 122.93554688 C145.73874734 136.03761084 143.69599617 148.27109008 138.5703125 160.42578125 C138.22033203 161.27382324 137.87035156 162.12186523 137.50976562 162.99560547 C132.90354397 173.90935216 127.01725673 183.21118549 119.3203125 192.23828125 C118.72863281 192.975625 118.13695312 193.71296875 117.52734375 194.47265625 C96.84044089 219.34986993 62.7054895 231.97035166 31.3203125 235.23828125 C25.01558369 235.65467997 18.71032579 235.67309639 12.39428711 235.62939453 C9.62369057 235.61322802 6.85453891 235.62939924 4.08398438 235.6484375 C-6.87992912 235.66104005 -16.98680032 234.69678345 -27.6796875 232.23828125 C-29.04750671 231.94394947 -30.41567652 231.65124258 -31.78417969 231.36010742 C-62.0225982 224.76013656 -89.98806423 206.85404786 -107.328125 181.03515625 C-123.85321075 155.14269211 -129.43774815 121.87530618 -123.0546875 91.86328125 C-115.99165773 61.91372034 -97.71001587 36.69045595 -71.74414062 20.47705078 C-49.77364471 7.29371395 -25.61947955 0.22905484 0 0 Z " fill="#FE9900" transform="translate(1493.6796875,490.76171875)"/>
<path d="M0 0 C2 1 2 1 2.93440247 3.2644043 C3.25744858 4.27414307 3.58049469 5.28388184 3.91333008 6.32421875 C4.28661438 7.47811096 4.65989868 8.63200317 5.04449463 9.82086182 C5.45296298 11.10970229 5.86130431 12.39858304 6.26953125 13.6875 C6.7020238 15.033725 7.13520627 16.37972853 7.56903076 17.7255249 C8.74637399 21.38407753 9.91448861 25.04551918 11.08110428 28.70750427 C12.30304294 32.53756381 13.53349623 36.36488405 14.76342773 40.19238281 C16.55230853 45.76154339 18.33866524 51.33150156 20.12195683 56.90245438 C23.38070571 67.08154175 26.66128063 77.25344675 29.953125 87.421875 C30.43304107 88.90466253 30.91295543 90.38745061 31.39286804 91.87023926 C32.32815204 94.75972161 33.26356759 97.64916133 34.19906616 100.53857422 C44.91009436 133.62214197 44.91009436 133.62214197 49.02661133 146.89013672 C50.31574655 151.00877341 51.67410905 155.10143776 53.0625 159.1875 C54.67550593 163.93615332 56.22009133 168.69664085 57.67578125 173.49609375 C60.64098534 183.18860024 63.83747431 192.80680627 66.9972229 202.43722534 C68.90333651 208.24758367 70.80517066 214.05934218 72.70703125 219.87109375 C73.26667824 221.58103264 73.26667824 221.58103264 73.83763123 223.32551575 C76.84696586 232.52381298 79.84057013 241.72705241 82.8125 250.9375 C83.18971191 252.10458496 83.56692383 253.27166992 83.95556641 254.47412109 C85.66224962 259.7727498 87.33732288 265.07884308 88.96484375 270.40234375 C90.38643967 275.04603733 91.85556476 279.67132954 93.359375 284.2890625 C93.75253906 285.49691406 94.14570312 286.70476562 94.55078125 287.94921875 C95.36328209 290.43965292 96.17846924 292.92921201 96.99609375 295.41796875 C97.38410156 296.61292969 97.77210938 297.80789063 98.171875 299.0390625 C98.6992627 300.65095459 98.6992627 300.65095459 99.23730469 302.29541016 C100 305 100 305 100 308 C34.66 308 -30.68 308 -98 308 C-96.87622417 299.00979337 -96.87622417 299.00979337 -95.328125 294.78515625 C-94.99296875 293.84994141 -94.6578125 292.91472656 -94.3125 291.95117188 C-93.961875 290.99791016 -93.61125 290.04464844 -93.25 289.0625 C-90.84940322 282.48394153 -88.63996673 275.89045651 -86.70336914 269.15991211 C-84.15107507 260.3937954 -81.37577252 251.71004537 -78.54296875 243.03125 C-78.03097075 241.4564121 -77.51920166 239.88149976 -77.00764465 238.30651855 C-75.67297455 234.19912066 -74.33560399 230.09260762 -72.99749756 225.98632812 C-70.87364164 219.46704588 -68.75411272 212.94635426 -66.63408279 206.42582703 C-66.1141366 204.8267662 -65.59409385 203.22773675 -65.07395554 201.6287384 C-61.69653342 191.2454444 -58.34308364 180.85501824 -55.02482605 170.45263672 C-52.19713341 161.5959277 -49.33565782 152.75032362 -46.46875 143.90625 C-46.22645975 143.15875992 -45.9841695 142.41126984 -45.73453712 141.64112854 C-43.73879355 135.4845966 -41.74188253 129.32844345 -39.74493408 123.17230225 C-31.84885706 98.82996412 -31.84885706 98.82996412 -24.0279541 74.46339417 C-19.62542153 60.68167785 -15.1666912 46.9180374 -10.71588135 33.15185547 C-9.50172614 29.39624537 -8.28799348 25.64049871 -7.07421875 21.88476562 C-4.716545 14.58971468 -2.35842618 7.29480773 0 0 Z " fill="#330000" transform="translate(837,803)"/>
</svg>
