<?xml version="1.0" encoding="UTF-8"?>
<svg version="1.1" xmlns="http://www.w3.org/2000/svg" width="500" height="500">
<path d="M0 0 C165 0 330 0 500 0 C500 165 500 330 500 500 C335 500 170 500 0 500 C0 335 0 170 0 0 Z " fill="#EFDA4F" transform="translate(0,0)"/>
<path d="M0 0 C7.83208325 6.22496844 17.03606173 14.7298764 19.25927734 24.73632812 C18.22931641 25.40277344 17.19935547 26.06921875 16.13818359 26.75585938 C15.45771973 27.19631592 14.77725586 27.63677246 14.07617188 28.09057617 C12.56079618 29.07079482 11.04483578 30.05011009 9.52832031 31.02856445 C5.48837818 33.63698181 1.45946805 36.25991873 -2.54931641 38.91601562 C-3.3151001 39.42028076 -4.08088379 39.9245459 -4.86987305 40.4440918 C-6.34793724 41.41795277 -7.8224999 42.39715254 -9.29321289 43.38208008 C-14.40342544 46.73632812 -14.40342544 46.73632812 -17.74072266 46.73632812 C-19.24853516 44.75976562 -19.24853516 44.75976562 -20.86572266 42.11132812 C-25.31452025 35.45698257 -31.09918932 31.19174878 -38.74072266 28.73632812 C-46.87334472 27.91441419 -54.99954217 27.50847406 -62.03759766 32.23632812 C-65.93183155 35.66611211 -68.40935685 39.67798474 -68.97900391 44.93554688 C-69.19447072 52.1593552 -67.92478192 56.94059431 -63.25634766 62.50585938 C-53.95175569 71.62518292 -39.90232304 76.13273152 -28.17822266 81.23632812 C-13.91107086 87.45654261 -0.93402681 93.88789015 11.25927734 103.73632812 C11.98630859 104.27515625 12.71333984 104.81398438 13.46240234 105.36914062 C23.73817943 113.41984787 29.28772113 125.31946824 32.25927734 137.73632812 C32.43217285 138.34814941 32.60506836 138.9599707 32.78320312 139.59033203 C36.6308553 156.93436414 32.67303336 175.37390927 23.77099609 190.41992188 C13.21101048 206.6009851 -4.83555448 214.55376915 -23.10791016 218.82617188 C-30.27833454 220.20347722 -37.52969036 220.13062186 -44.80322266 220.11132812 C-45.53616547 220.11111664 -46.26910828 220.11090515 -47.02426147 220.11068726 C-72.3414049 220.03767533 -95.96697484 212.31800595 -114.30712891 194.20117188 C-129.74072266 177.82506858 -129.74072266 177.82506858 -129.74072266 171.73632812 C-129.00547363 171.31335449 -128.27022461 170.89038086 -127.51269531 170.45458984 C-124.7352561 168.85619867 -121.95829701 167.2569772 -119.18164062 165.65722656 C-117.98911838 164.97037993 -116.79641569 164.28384648 -115.60351562 163.59765625 C-113.87010825 162.6004732 -112.13744475 161.60199743 -110.40478516 160.60351562 C-109.27717773 159.95608398 -108.14957031 159.30865234 -106.98779297 158.64160156 C-103.20455286 156.42172143 -99.5081103 154.07906027 -95.83984375 151.67431641 C-93.74072266 150.73632812 -93.74072266 150.73632812 -91.57983398 150.94458008 C-88.74602784 152.16454999 -87.72562255 154.24990836 -86.05322266 156.79882812 C-77.86042009 168.50283179 -67.82418999 175.24782813 -53.74072266 177.73632812 C-41.97496503 178.73824535 -30.27941266 177.62324334 -20.58837891 170.37695312 C-16.35379785 166.61686001 -14.97972418 163.89237346 -14.36962891 158.38867188 C-14.1911911 153.24641868 -14.16766636 149.04958213 -16.24072266 144.29882812 C-22.3744784 138.01172849 -28.27610305 133.52834079 -36.30322266 129.92382812 C-37.20435791 129.50568848 -38.10549316 129.08754883 -39.03393555 128.65673828 C-44.88586953 125.96296693 -50.79564033 123.41048472 -56.71850586 120.87744141 C-78.10291299 111.72957905 -96.7588192 101.46013053 -108.74072266 80.73632812 C-109.14291016 80.06859375 -109.54509766 79.40085937 -109.95947266 78.71289062 C-117.08435552 65.9204873 -117.92608999 48.12127311 -114.42431641 34.01757812 C-114.19873047 33.26476562 -113.97314453 32.51195312 -113.74072266 31.73632812 C-113.48419922 30.85976563 -113.22767578 29.98320312 -112.96337891 29.08007812 C-107.94511144 13.74528655 -98.08192713 2.64798317 -84.29150391 -5.47070312 C-58.44984717 -18.51946049 -23.69670114 -17.20254209 0 0 Z " fill="#333430" transform="translate(426.74072265625,240.263671875)"/>
<path d="M0 0 C15.51 0 31.02 0 47 0 C47.09059658 21.81983759 47.1641535 43.63952086 47.20724869 65.45949936 C47.22779807 75.59286016 47.2557713 85.72609506 47.30175781 95.859375 C47.3418607 104.70046018 47.36748807 113.5414541 47.37635398 122.38262773 C47.38152938 127.05589756 47.39353067 131.72890649 47.42292023 136.40209198 C47.76715732 193.42150414 47.76715732 193.42150414 28 214 C13.40921557 227.48061605 -4.39233791 231.40156073 -23.6875 231.375 C-24.35263611 231.37445618 -25.01777222 231.37391235 -25.70306396 231.37335205 C-44.57500289 231.30231732 -60.60396637 226.69158521 -75 214 C-75.73863281 213.35546875 -76.47726563 212.7109375 -77.23828125 212.046875 C-81.90199833 207.6972943 -85.62365566 202.98692482 -89.125 197.6875 C-89.72924805 196.78922485 -89.72924805 196.78922485 -90.34570312 195.87280273 C-93.03355954 191.62916442 -93.03355954 191.62916442 -92.89355469 189.00439453 C-91.62469315 186.15812316 -89.92950727 185.35997855 -87.2578125 183.79296875 C-86.27296875 183.20580078 -85.288125 182.61863281 -84.2734375 182.01367188 C-83.23445312 181.41103516 -82.19546875 180.80839844 -81.125 180.1875 C-79.10609664 178.99462991 -77.08786553 177.80062129 -75.0703125 176.60546875 C-74.06774414 176.01942871 -73.06517578 175.43338867 -72.03222656 174.82958984 C-68.04663063 172.42475442 -64.20253581 169.82272049 -60.37060547 167.1809082 C-58 166 -58 166 -55.79931641 166.16772461 C-52.98201088 167.47087177 -52.05035122 169.61440293 -50.5 172.25 C-46.17953366 179.51623884 -42.30072766 185.32446823 -34 188 C-25.98569815 189.15849903 -16.8900405 189.25193473 -9.66015625 185.25390625 C-4.48243579 181.34320445 -2.35425055 175.14849798 -1 169 C-0.55130865 163.4888738 -0.56156342 157.98937525 -0.56762695 152.46459961 C-0.55859924 150.79826129 -0.54826955 149.1319296 -0.53674316 147.46560669 C-0.50926554 142.96419932 -0.49990125 138.46291828 -0.49388909 133.96143794 C-0.4844813 129.24886406 -0.458276 124.53638365 -0.43388367 119.8238678 C-0.39028103 110.90998717 -0.3616958 101.99612475 -0.33856028 93.08217007 C-0.31147514 82.92974261 -0.26756569 72.77740947 -0.22227156 62.62504947 C-0.12951457 41.75007048 -0.06001355 20.87510057 0 0 Z " fill="#343430" transform="translate(225,229)"/>
<path d="M0 0 C0.66 0.33 1.32 0.66 2 1 C-0.64 3.64 -3.28 6.28 -6 9 C-6 6 -6 6 -3.5625 3.375 C-2.716875 2.59125 -1.87125 1.8075 -1 1 C-0.67 0.67 -0.34 0.34 0 0 Z " fill="#D0BF49" transform="translate(366,271)"/>
</svg>
